{
  "title": "Laurence.Anyways.2012.BRRip.AC3.HORiZON-ArtSubs",
  "uid": 7852414,
  "size": 2102804415,
  "categoryP": "video",
  "categoryS": "movies",
  "magnet": "?xt=urn:btih:f1052006490383bab7a84d385a465d9d65a837ce&amp;dn=Laurence.Anyways.2012.BRRip.AC3.HORiZON-ArtSubs&amp;tr=udp%3A%2F%2Ftracker.openbittorrent.com%3A80&amp;tr=udp%3A%2F%2Fopen.demonii.com%3A1337&amp;tr=udp%3A%2F%2Ftracker.coppersurfer.tk%3A6969&amp;tr=udp%3A%2F%2Fexodus.desync.com%3A6969",
  "seeders": 46,
  "leechers": 4,
  "uploader": "lletaif",
  "files": 3,
  "time": 1353642044,
  "description": "imdb:http://www.imdb.com/title/tt1650048/\n\nSubtitles: English and french\n\nRip Specs:\n\nGeneral\nComplete name                    : Laurence.Anyways.2012.BRRip.AC3.HORiZON-ArtSubs.avi\nFormat                           : AVI\nFormat/Info                      : Audio Video Interleave\nFile size                        : 1.95 GiB\nDuration                         : 2h 48mn\nOverall bit rate                 : 1 660 Kbps\nWriting application              : FairUse Wizard - http://fairusewizard.com\nWriting library                  : The best and REALLY easy backup tool\n\nVideo\nID                               : 0\nFormat                           : MPEG-4 Visual\nFormat profile                   : Advanced Simple@L5\nFormat settings, BVOP            : 1\nFormat settings, QPel            : No\nFormat settings, GMC             : No warppoints\nFormat settings, Matrix          : Default (MPEG)\nMuxing mode                      : Packed bitstream\nCodec ID                         : XVID\nCodec ID/Hint                    : XviD\nDuration                         : 2h 48mn\nBit rate                         : 1 202 Kbps\nWidth                            : 592 pixels\nHeight                           : 432 pixels\nDisplay aspect ratio             : 1.370\nFrame rate                       : 23.976 fps\nColor space                      : YUV\nChroma subsampling               : 4:2:0\nBit depth                        : 8 bits\nScan type                        : Progressive\nCompression mode                 : Lossy\nBits/(Pixel*Frame)               : 0.196\nStream size                      : 1.41 GiB (72%)\nWriting library                  : XviD 1.2.0.dev47 (UTC 2006-11-01)\n\nAudio\nID                               : 1\nFormat                           : AC-3\nFormat/Info                      : Audio Coding 3\nMode extension                   : CM (complete main)\nCodec ID                         : 2000\nDuration                         : 2h 48mn\nBit rate mode                    : Constant\nBit rate                         : 448 Kbps\nChannel(s)                       : 6 channels\nChannel positions                : Front: L C R, Side: L R, LFE\nSampling rate                    : 48.0 KHz\nBit depth                        : 16 bits\nCompression mode                 : Lossy\nStream size                      : 538 MiB (27%)\nAlignment                        : Split accross interleaves\nInterleave, duration             : 42 ms (1.00 video frame)\nInterleave, preload duration     : 500 ms\n\n",
  "parsed": {
    "xt": "urn:btih:f1052006490383bab7a84d385a465d9d65a837ce",
    "dn": "Laurence.Anyways.2012.BRRip.AC3.HORiZON-ArtSubs",
    "tr": [
      "udp://exodus.desync.com:6969",
      "udp://open.demonii.com:1337",
      "udp://tracker.coppersurfer.tk:6969",
      "udp://tracker.openbittorrent.com:80"
    ],
    "infoHash": "f1052006490383bab7a84d385a465d9d65a837ce",
    "infoHashBuffer": {
      "type": "Buffer",
      "data": [
        241,
        5,
        32,
        6,
        73,
        3,
        131,
        186,
        183,
        168,
        77,
        56,
        90,
        70,
        93,
        157,
        101,
        168,
        55,
        206
      ]
    },
    "name": "Laurence.Anyways.2012.BRRip.AC3.HORiZON-ArtSubs",
    "announce": [
      "udp://exodus.desync.com:6969",
      "udp://open.demonii.com:1337",
      "udp://tracker.coppersurfer.tk:6969",
      "udp://tracker.openbittorrent.com:80"
    ],
    "urlList": []
  },
  "previous": 50,
  "peers": 115,
  "last_updated": "2016-12-25T17:48:12.043Z"
}